<svg width="2500" height="635" viewBox="0 0 2500 635" fill="none" xmlns="http://www.w3.org/2000/svg">
<path d="M0 457.927L352.251 281.801L704.503 457.927L352.251 634.053L0 457.927Z" fill="url(#paint0_radial_41_96)"/>
<path fill-rule="evenodd" clip-rule="evenodd" d="M352.251 35.2411C352.256 22.0508 359.629 9.94016 371.358 3.90421C383.091 -2.13353 397.214 -1.10798 407.951 6.5614M317.335 176.135C317.183 176.143 317.046 176.128 317.046 176.128C317.153 176.128 317.236 176.129 317.335 176.135ZM319.146 176.742C319.146 176.742 319.021 176.706 318.77 176.479C319.021 176.602 319.146 176.742 319.146 176.742Z" fill="url(#paint1_radial_41_96)"/>
<path fill-rule="evenodd" clip-rule="evenodd" d="M276.18 54.9418C262.235 49.8931 246.622 54.1193 237.128 65.5124L237.068 65.584L236.977 65.6947L236.699 66.0321L235.78 67.1629C235.011 68.1161 233.936 69.4652 232.6 71.184C229.927 74.6195 226.198 79.5451 221.765 85.7518C212.92 98.134 201.155 115.78 189.365 137.003C166.259 178.594 140.901 237.719 140.901 299.414C140.901 426.796 247.082 510.765 352.26 510.765C462.183 510.765 545.99 422.039 545.99 299.414C545.99 202.659 512.017 129.699 477.978 81.0721C461.004 56.8227 443.98 38.5592 431.034 26.2292C424.55 20.0541 419.054 15.3347 415.05 12.0657C413.046 10.4302 411.412 9.15447 410.209 8.23806C409.608 7.77975 409.114 7.41096 408.735 7.13163L408.254 6.77958L408.08 6.65377L408.009 6.6034L407.951 6.5614L371.358 3.90421L352.251 35.2411L352.25 35.5033L352.237 36.7336C352.222 37.8573 352.192 39.57 352.128 41.7872C352.001 46.2274 351.745 52.6563 351.229 60.4018C350.187 76.0263 348.126 96.3949 344.129 116.38C340.017 136.94 334.381 154.323 327.55 165.708C323.006 173.281 319.846 175.376 318.241 175.939C317.739 175.378 317.029 174.468 316.11 173.039C312.052 166.727 308.196 156.136 305.237 142.326C302.397 129.076 300.907 115.423 300.15 104.817C299.776 99.5843 299.591 95.2514 299.5 92.2827C299.455 90.8016 299.433 89.6692 299.423 88.9444L299.414 88.1732L299.414 88.0281C299.399 73.2117 290.114 59.9865 276.18 54.9418ZM317.335 176.135C317.183 176.143 317.046 176.128 317.046 176.128L317.335 176.135ZM319.146 176.742C319.146 176.742 319.021 176.706 318.77 176.479C319.021 176.602 319.146 176.742 319.146 176.742Z" fill="url(#paint2_radial_41_96)"/>
<path d="M311.968 394.476C311.968 456.905 314.905 461.123 335.715 461.123C356.524 461.123 410.751 494.403 471.204 365.5C531.656 236.597 406.797 70.121 406.797 70.121C406.797 70.121 365.178 236.597 323.557 257.164C281.937 277.732 311.968 290.429 311.968 394.476Z" fill="url(#paint3_radial_41_96)"/>
<path fill-rule="evenodd" clip-rule="evenodd" d="M423.445 57.636L406.797 70.121C423.445 57.6353 423.445 57.636 423.445 57.636L423.497 57.706L423.595 57.8369L423.921 58.2794L425.078 59.8711C426.062 61.24 427.463 63.2175 429.203 65.7537C432.682 70.8235 437.527 78.1403 443.122 87.3022C454.286 105.585 468.568 131.426 480.926 161.582C505.236 220.903 524.06 303.476 490.037 376.024C471.204 417.643 436.292 450.657 404.369 467.469C375.407 482.722 350.512 482.215 338.926 481.98C347.872 397.514 336.63 481.933 335.715 481.933C321.968 481.933 330.404 417.145 299.446 403.073C269.615 389.513 339.66 420.527 339.66 376.024C339.66 317.22 201.941 307.135 232.486 282.593C254.226 265.125 280.525 253.578 299.446 245.271C305.206 242.742 310.282 240.514 314.338 238.509C315.533 237.919 318.444 235.811 322.718 230.37C326.797 225.177 331.176 218.164 335.715 209.557C344.788 192.35 353.503 170.69 361.163 149.001C368.781 127.431 375.156 106.41 379.635 90.737C381.87 82.915 383.624 76.4589 384.814 71.9751C385.41 69.7338 385.863 67.9873 386.166 66.8115L386.505 65.486L386.586 65.1625L386.605 65.0887C388.553 57.3017 394.809 51.313 402.678 49.724C410.547 48.1349 418.628 51.2138 423.445 57.636ZM414.311 120.31C410.398 133.207 405.701 147.872 400.407 162.861C392.46 185.361 382.966 209.176 372.53 228.969C367.314 238.861 361.613 248.228 355.449 256.076C349.48 263.676 341.986 271.27 332.777 275.821C325.968 279.186 318.995 282.254 311.964 285.348C293.962 293.27 275.574 301.362 258.555 315.036C237.076 332.294 332.778 349.234 332.778 394.477C332.778 412.403 347.809 428.11 375.204 440.562C401.473 452.502 328.651 440.314 335.715 440.314C336.919 440.314 338.185 440.333 339.512 440.353C350.546 440.519 365.792 440.747 384.975 430.645C406.559 419.277 423.418 418.385 452.363 356.665C478.792 300.311 465.421 233.506 442.414 177.363C433.439 155.462 423.295 135.921 414.311 120.31Z" fill="url(#paint4_radial_41_96)"/>
<path d="M454.858 394.707C454.858 447.531 366.846 465.139 349.244 465.139C331.641 465.139 258.847 482.292 207.712 373.22C156.577 264.148 262.192 123.284 262.192 123.284C262.192 123.284 297.397 264.148 332.602 281.551C367.808 298.955 454.858 306.667 454.858 394.707Z" fill="url(#paint5_radial_41_96)"/>
<path fill-rule="evenodd" clip-rule="evenodd" d="M248.11 112.72L262.192 123.284C248.11 112.719 248.11 112.72 248.11 112.72L248.066 112.779L247.984 112.89L247.707 113.264L246.729 114.611C245.896 115.769 244.711 117.442 243.239 119.588C240.297 123.878 236.199 130.069 231.466 137.822C222.022 153.291 209.942 175.158 199.489 200.674C178.926 250.869 163.002 320.738 191.782 382.125C207.712 417.341 264.168 456.283 291.171 470.509C315.669 483.415 336.727 482.986 346.527 482.787C347.561 482.766 348.47 482.747 349.244 482.747C360.872 482.747 389.749 477.669 415.936 465.762C441.169 454.289 472.461 432.363 472.461 394.707C472.461 344.949 435.474 323.834 409.637 303.068C391.248 288.287 369.002 278.517 352.998 271.488C348.125 269.348 343.831 267.462 340.401 265.766C339.39 265.266 336.927 263.483 333.312 258.879C329.862 254.485 326.158 248.551 322.319 241.268C314.644 226.708 307.273 208.38 300.793 190.028C294.349 171.777 288.957 153.99 285.168 140.728C283.277 134.109 281.794 128.647 280.787 124.853C280.283 122.956 279.899 121.478 279.644 120.483L279.357 119.362L279.288 119.088L279.272 119.026C277.625 112.437 272.332 107.369 265.677 106.025C259.02 104.68 252.185 107.285 248.11 112.72ZM255.837 165.751C259.146 176.665 263.12 189.073 267.597 201.756C274.32 220.795 282.35 240.946 291.178 257.693C295.59 266.064 300.412 273.99 305.626 280.631C310.675 287.061 317.014 293.487 324.804 297.338C330.564 300.185 336.461 302.781 342.409 305.399C357.637 312.102 373.191 318.949 387.586 330.52C405.754 345.122 437.256 356.425 437.256 394.707C437.256 409.875 424.541 423.166 401.368 433.703C379.148 443.806 355.219 447.531 349.244 447.531C348.225 447.531 347.154 447.547 346.031 447.564C336.698 447.704 323.802 447.898 307.576 439.35C289.318 429.731 248.133 417.969 223.649 365.744C201.294 318.06 212.603 261.532 232.064 214.027C239.656 195.495 248.237 178.961 255.837 165.751Z" fill="url(#paint6_radial_41_96)"/>
<path fill-rule="evenodd" clip-rule="evenodd" d="M2488.06 411.423L2488.06 411.422C2480.28 428.821 2469.49 444.107 2455.61 456.835L2455.41 457.017L2455.21 457.196C2441.62 469.269 2426.06 478.413 2408.82 484.664C2391.82 490.928 2374.05 493.992 2355.72 493.992C2337.35 493.992 2319.48 490.915 2302.31 484.706L2302.08 484.623L2302.08 484.622C2285.08 478.338 2269.71 469.183 2256.23 457.196L2256.03 457.017L2255.83 456.835C2241.94 444.107 2231.15 428.821 2223.38 411.422L2223.26 411.172L2223.27 411.171C2215.08 392.453 2211.44 372.008 2211.44 350.555V345.483C2211.44 324.293 2215.08 304.078 2223.32 285.588C2231.06 267.949 2241.84 252.448 2255.83 239.626C2269.36 227.225 2284.85 217.784 2302.08 211.416L2302.31 211.331L2302.31 211.332C2319.48 205.123 2337.35 202.046 2355.72 202.046C2374.05 202.046 2391.82 205.11 2408.82 211.374C2426.28 217.708 2441.98 227.136 2455.61 239.626C2469.59 252.448 2480.38 267.95 2488.12 285.59C2496.35 304.079 2500 324.293 2500 345.483V350.555C2500 372.008 2496.36 392.453 2488.17 411.171L2488.06 411.423ZM2396.72 244.457C2383.76 239.666 2370.09 237.271 2355.72 237.271C2341.35 237.271 2327.54 239.666 2314.29 244.457C2301.33 249.248 2289.78 256.293 2279.63 265.592C2269.49 274.892 2261.46 286.304 2255.54 299.831C2249.62 313.076 2246.66 328.293 2246.66 345.483V350.555C2246.66 368.027 2249.62 383.526 2255.54 397.052C2261.46 410.297 2269.49 421.569 2279.63 430.868C2289.78 439.886 2301.33 446.79 2314.29 451.581C2327.54 456.371 2341.35 458.767 2355.72 458.767C2370.09 458.767 2383.76 456.371 2396.72 451.581C2409.96 446.79 2421.66 439.886 2431.8 430.868C2441.95 421.569 2449.98 410.297 2455.9 397.052C2461.82 383.526 2464.77 368.027 2464.77 350.555V345.483C2464.77 328.293 2461.82 313.076 2455.9 299.831C2449.98 286.304 2441.95 274.892 2431.8 265.592C2421.66 256.293 2409.96 249.248 2396.72 244.457ZM2406.86 320.543C2404.05 313.498 2400.1 307.58 2395.03 302.79C2389.96 297.999 2384.04 294.336 2377.28 291.8C2370.51 289.263 2363.33 287.995 2355.72 287.995C2348.11 287.995 2340.92 289.263 2334.16 291.8C2327.4 294.336 2321.48 297.999 2316.41 302.79C2311.33 307.58 2307.25 313.498 2304.15 320.543C2301.33 327.307 2299.92 335.056 2299.92 343.792V352.246C2299.92 360.982 2301.33 368.872 2304.15 375.917C2307.25 382.68 2311.33 388.457 2316.41 393.248C2321.48 398.039 2327.4 401.702 2334.16 404.238C2340.92 406.774 2348.11 408.043 2355.72 408.043C2363.33 408.043 2370.51 406.774 2377.28 404.238C2384.04 401.702 2389.96 398.039 2395.03 393.248C2400.1 388.457 2404.05 382.68 2406.86 375.917C2409.96 368.872 2411.51 360.982 2411.51 352.246V343.792C2411.51 335.056 2409.96 327.307 2406.86 320.543ZM2336.57 362.073C2337.81 364.551 2339.18 366.302 2340.59 367.639C2342.14 369.096 2344 370.307 2346.53 371.256C2349.13 372.231 2352.11 372.817 2355.72 372.817C2359.33 372.817 2362.31 372.231 2364.91 371.256C2367.44 370.307 2369.3 369.096 2370.84 367.639C2372.14 366.41 2373.33 364.806 2374.35 362.369L2374.48 362.049L2374.62 361.731C2375.51 359.722 2376.29 356.755 2376.29 352.246V343.792C2376.29 339.248 2375.5 336.645 2374.84 335.22L2374.48 334.431L2374.16 333.626C2373.07 330.904 2371.88 329.383 2370.84 328.399C2369.3 326.942 2367.44 325.731 2364.91 324.782C2362.31 323.807 2359.33 323.22 2355.72 323.22C2352.11 323.22 2349.13 323.807 2346.53 324.782C2344 325.731 2342.14 326.942 2340.59 328.399L2316.41 302.79L2340.59 328.399C2339.33 329.592 2337.9 331.401 2336.55 334.37C2335.86 336.136 2335.15 339.086 2335.15 343.792V352.246C2335.15 356.653 2335.78 359.807 2336.57 362.073Z" fill="#E4BA4D"/>
<path fill-rule="evenodd" clip-rule="evenodd" d="M2068.28 207.97H2139.7C2136.58 199.268 2135.07 190.227 2135.07 181.058C2135.07 171.228 2136.81 161.412 2140.68 152.006L2140.86 151.556L2141.06 151.111C2144.95 142.362 2150.41 134.227 2157.71 127.343C2164.35 120.823 2172.05 115.679 2180.61 112.04C2190.16 107.693 2200.25 105.676 2210.45 105.676C2220.52 105.676 2230.33 107.75 2239.54 111.894C2248.29 115.452 2256.29 120.581 2263.19 127.343C2270.56 134.301 2275.96 142.577 2279.61 151.54C2283.86 160.992 2285.83 170.977 2285.83 181.058C2285.83 191.383 2283.76 201.465 2279.61 210.981C2277.82 215.243 2275.66 219.293 2273.15 223.107V494.28C2273.15 514.956 2267.47 537.102 2249.55 553.103C2233.97 567.014 2214.75 572.62 2195.23 572.62H2060.67V451.446H2149.44V329.144H2068.28V207.97ZM2184.66 293.919V472.722C2184.66 482.021 2180.44 486.671 2171.98 486.671H2095.9V537.395H2195.23C2207.91 537.395 2218.2 533.873 2226.09 526.828C2233.98 519.783 2237.92 508.933 2237.92 494.28V243.195H2103.5V293.919H2184.66ZM2240.49 207.97C2243.33 204.748 2245.57 201.132 2247.22 197.12C2249.48 192.048 2250.6 186.694 2250.6 181.058C2250.6 175.422 2249.48 170.208 2247.22 165.418C2245.25 160.345 2242.43 156.118 2238.77 152.737C2235.11 149.073 2230.74 146.255 2225.67 144.283C2220.87 142.028 2215.8 140.901 2210.45 140.901C2204.81 140.901 2199.6 142.028 2194.81 144.283C2190.02 146.255 2185.79 149.073 2182.13 152.737C2178.46 156.118 2175.5 160.345 2173.25 165.418C2171.28 170.208 2170.29 175.422 2170.29 181.058C2170.29 186.694 2171.28 192.048 2173.25 197.12C2175.14 201.132 2177.52 204.748 2180.4 207.97C2180.95 208.595 2181.53 209.206 2182.13 209.801C2185.79 213.183 2190.02 216.001 2194.81 218.255C2199.6 220.228 2204.81 221.214 2210.45 221.214C2215.8 221.214 2220.87 220.228 2225.67 218.255C2230.35 216.172 2234.44 213.607 2237.92 210.561C2238.21 210.311 2238.49 210.058 2238.77 209.801C2239.36 209.206 2239.94 208.595 2240.49 207.97Z" fill="#E4BA4D"/>
<path fill-rule="evenodd" clip-rule="evenodd" d="M2143.56 411.423L2143.56 411.422C2135.78 428.821 2124.99 444.107 2111.1 456.835L2110.9 457.017L2110.7 457.196C2097.12 469.269 2081.55 478.413 2064.31 484.664C2047.32 490.928 2029.54 493.992 2011.21 493.992C1992.84 493.992 1974.97 490.915 1957.81 484.706L1957.58 484.623L1957.58 484.622C1940.58 478.338 1925.21 469.183 1911.73 457.196L1911.52 457.017L1911.33 456.835C1897.44 444.107 1886.65 428.821 1878.87 411.422L1878.76 411.172L1878.76 411.171C1870.57 392.453 1866.93 372.008 1866.93 350.555V345.483C1866.93 324.293 1870.58 304.078 1878.82 285.588C1886.55 267.949 1897.34 252.448 1911.33 239.626C1924.85 227.225 1940.35 217.784 1957.58 211.416L1957.81 211.331L1957.81 211.332C1974.97 205.123 1992.84 202.046 2011.21 202.046C2029.54 202.046 2047.32 205.11 2064.31 211.374C2081.78 217.708 2097.48 227.136 2111.1 239.626C2125.09 252.448 2135.88 267.95 2143.61 285.59C2151.85 304.079 2155.5 324.293 2155.5 345.483V350.555C2155.5 372.008 2151.86 392.453 2143.67 411.171L2143.56 411.423ZM2052.22 244.457C2039.25 239.666 2025.59 237.271 2011.21 237.271C1996.84 237.271 1983.03 239.666 1969.79 244.457C1956.83 249.248 1945.27 256.293 1935.13 265.592C1924.98 274.892 1916.95 286.304 1911.03 299.831C1905.12 313.076 1902.16 328.293 1902.16 345.483V350.555C1902.16 368.027 1905.12 383.526 1911.03 397.052C1916.95 410.297 1924.98 421.569 1935.13 430.868C1945.27 439.886 1956.83 446.79 1969.79 451.581C1983.03 456.371 1996.84 458.767 2011.21 458.767C2025.59 458.767 2039.25 456.371 2052.22 451.581C2065.46 446.79 2077.16 439.886 2087.3 430.868C2097.45 421.569 2105.48 410.297 2111.4 397.052C2117.31 383.526 2120.27 368.027 2120.27 350.555V345.483C2120.27 328.293 2117.31 313.076 2111.4 299.831C2105.48 286.304 2097.45 274.892 2087.3 265.592C2077.16 256.293 2065.46 249.248 2052.22 244.457ZM2062.36 320.543C2059.54 313.498 2055.6 307.58 2050.53 302.79C2045.45 297.999 2039.54 294.336 2032.77 291.8C2026.01 289.263 2018.82 287.995 2011.21 287.995C2003.61 287.995 1996.42 289.263 1989.66 291.8C1982.89 294.336 1976.98 297.999 1971.9 302.79C1966.83 307.58 1962.75 313.498 1959.65 320.543C1956.83 327.307 1955.42 335.056 1955.42 343.792V352.246C1955.42 360.982 1956.83 368.872 1959.65 375.917C1962.75 382.68 1966.83 388.457 1971.9 393.248C1976.98 398.039 1982.89 401.702 1989.66 404.238C1996.42 406.774 2003.61 408.043 2011.21 408.043C2018.82 408.043 2026.01 406.774 2032.77 404.238C2039.54 401.702 2045.45 398.039 2050.53 393.248C2055.6 388.457 2059.54 382.68 2062.36 375.917C2065.46 368.872 2067.01 360.982 2067.01 352.246V343.792C2067.01 335.056 2065.46 327.307 2062.36 320.543ZM1992.07 362.073C1993.3 364.551 1994.67 366.302 1996.09 367.639C1997.63 369.096 1999.49 370.307 2002.03 371.256C2004.63 372.231 2007.6 372.817 2011.21 372.817C2014.83 372.817 2017.8 372.231 2020.4 371.256C2022.93 370.307 2024.8 369.096 2026.34 367.639C2027.64 366.41 2028.83 364.806 2029.85 362.369L2029.98 362.049L2030.12 361.731C2031 359.722 2031.79 356.755 2031.79 352.246V343.792C2031.79 339.248 2030.99 336.645 2030.34 335.22L2029.98 334.431L2029.66 333.626C2028.57 330.904 2027.38 329.383 2026.34 328.399C2024.8 326.942 2022.93 325.731 2020.4 324.782C2017.8 323.807 2014.83 323.22 2011.21 323.22C2007.6 323.22 2004.63 323.807 2002.03 324.782C1999.49 325.731 1997.63 326.942 1996.09 328.399L1971.9 302.79L1996.09 328.399C1994.83 329.592 1993.4 331.401 1992.05 334.37C1991.36 336.136 1990.64 339.086 1990.64 343.792V352.246C1990.64 356.653 1991.27 359.807 1992.07 362.073Z" fill="#E4BA4D"/>
<path fill-rule="evenodd" clip-rule="evenodd" d="M1620.36 121.74H1880.18V171.052H1930.9V488.082H1620.36V121.74ZM1706.31 452.857V206.277H1713L1734.2 452.857H1817.9L1838.32 206.277H1844.95V452.857H1895.68V206.277H1844.95V156.965H1797.61L1776.76 422.422L1753.65 156.965H1655.58V452.857H1706.31Z" fill="#E4BA4D"/>
<path d="M2464.77 350.555C2464.77 368.027 2461.82 383.526 2455.9 397.052C2449.98 410.297 2441.95 421.569 2431.8 430.868C2421.66 439.886 2409.96 446.79 2396.72 451.581C2383.76 456.371 2370.09 458.767 2355.72 458.767C2341.35 458.767 2327.54 456.371 2314.29 451.581C2301.33 446.79 2289.78 439.886 2279.63 430.868C2269.49 421.569 2261.46 410.297 2255.54 397.052C2249.62 383.526 2246.66 368.027 2246.66 350.555V345.483C2246.66 328.293 2249.62 313.076 2255.54 299.831C2261.46 286.304 2269.49 274.891 2279.63 265.592C2289.78 256.293 2301.33 249.248 2314.29 244.457C2327.54 239.666 2341.35 237.271 2355.72 237.271C2370.09 237.271 2383.76 239.666 2396.72 244.457C2409.96 249.248 2421.66 256.293 2431.8 265.592C2441.95 274.891 2449.98 286.304 2455.9 299.831C2461.82 313.076 2464.77 328.293 2464.77 345.483V350.555ZM2355.72 408.043C2363.33 408.043 2370.51 406.774 2377.28 404.238C2384.04 401.702 2389.96 398.039 2395.03 393.248C2400.1 388.457 2404.05 382.68 2406.86 375.917C2409.96 368.872 2411.51 360.982 2411.51 352.246V343.792C2411.51 335.056 2409.96 327.306 2406.86 320.543C2404.05 313.498 2400.1 307.58 2395.03 302.79C2389.96 297.999 2384.04 294.336 2377.28 291.8C2370.51 289.263 2363.33 287.995 2355.72 287.995C2348.11 287.995 2340.92 289.263 2334.16 291.8C2327.4 294.336 2321.48 297.999 2316.41 302.79C2311.33 307.58 2307.25 313.498 2304.15 320.543C2301.33 327.306 2299.92 335.056 2299.92 343.792V352.246C2299.92 360.982 2301.33 368.872 2304.15 375.917C2307.25 382.68 2311.33 388.457 2316.41 393.248C2321.48 398.039 2327.4 401.702 2334.16 404.238C2340.92 406.774 2348.11 408.043 2355.72 408.043Z" fill="black"/>
<path d="M1655.58 156.965H1753.65L1776.76 422.422L1797.61 156.965H1844.95V206.277H1895.68V452.857H1844.95V255.032V206.277H1838.32L1817.9 452.857H1734.2L1713 206.277H1706.31V255.032V452.857H1655.58V156.965Z" fill="black"/>
<path d="M2103.5 243.195H2237.92V494.28C2237.92 508.933 2233.98 519.783 2226.09 526.828C2218.2 533.873 2207.91 537.395 2195.23 537.395H2095.9V486.671H2171.98C2180.44 486.671 2184.66 482.021 2184.66 472.722V293.919H2103.5V243.195ZM2250.6 181.058C2250.6 186.694 2249.48 192.048 2247.22 197.12C2245.25 201.911 2242.43 206.138 2238.77 209.801C2235.11 213.183 2230.74 216.001 2225.67 218.255C2220.87 220.228 2215.8 221.214 2210.45 221.214C2204.81 221.214 2199.6 220.228 2194.81 218.255C2190.02 216.001 2185.79 213.183 2182.13 209.801C2178.46 206.138 2175.5 201.911 2173.25 197.12C2171.28 192.048 2170.29 186.694 2170.29 181.058C2170.29 175.422 2171.28 170.208 2173.25 165.418C2175.5 160.345 2178.46 156.118 2182.13 152.737C2185.79 149.073 2190.02 146.255 2194.81 144.282C2199.6 142.028 2204.81 140.901 2210.45 140.901C2215.8 140.901 2220.87 142.028 2225.67 144.282C2230.74 146.255 2235.11 149.073 2238.77 152.737C2242.43 156.118 2245.25 160.345 2247.22 165.418C2249.48 170.208 2250.6 175.422 2250.6 181.058Z" fill="black"/>
<path d="M2120.27 350.555C2120.27 368.027 2117.31 383.526 2111.4 397.052C2105.48 410.297 2097.45 421.569 2087.3 430.868C2077.16 439.886 2065.46 446.79 2052.22 451.581C2039.25 456.371 2025.59 458.767 2011.21 458.767C1996.84 458.767 1983.03 456.371 1969.79 451.581C1956.83 446.79 1945.27 439.886 1935.13 430.868C1924.98 421.569 1916.95 410.297 1911.03 397.052C1905.12 383.526 1902.16 368.027 1902.16 350.555V345.483C1902.16 328.293 1905.12 313.076 1911.03 299.831C1916.95 286.304 1924.98 274.891 1935.13 265.592C1945.27 256.293 1956.83 249.248 1969.79 244.457C1983.03 239.666 1996.84 237.271 2011.21 237.271C2025.59 237.271 2039.25 239.666 2052.22 244.457C2065.46 249.248 2077.16 256.293 2087.3 265.592C2097.45 274.891 2105.48 286.304 2111.4 299.831C2117.31 313.076 2120.27 328.293 2120.27 345.483V350.555ZM2011.21 408.043C2018.82 408.043 2026.01 406.774 2032.77 404.238C2039.54 401.702 2045.45 398.039 2050.53 393.248C2055.6 388.457 2059.54 382.68 2062.36 375.917C2065.46 368.872 2067.01 360.982 2067.01 352.246V343.792C2067.01 335.056 2065.46 327.306 2062.36 320.543C2059.54 313.498 2055.6 307.58 2050.53 302.79C2045.45 297.999 2039.54 294.336 2032.77 291.8C2026.01 289.263 2018.82 287.995 2011.21 287.995C2003.61 287.995 1996.42 289.263 1989.66 291.8C1982.89 294.336 1976.98 297.999 1971.9 302.79C1966.83 307.58 1962.74 313.498 1959.65 320.543C1956.83 327.306 1955.42 335.056 1955.42 343.792V352.246C1955.42 360.982 1956.83 368.872 1959.65 375.917C1962.74 382.68 1966.83 388.457 1971.9 393.248C1976.98 398.039 1982.89 401.702 1989.66 404.238C1996.42 406.774 2003.61 408.043 2011.21 408.043Z" fill="black"/>
<path fill-rule="evenodd" clip-rule="evenodd" d="M739.728 121.74H999.549V171.052H1050.27V488.082H739.728V121.74ZM825.677 452.857V206.277H832.373L853.576 452.857H937.271L957.688 206.277H964.324V452.857H1015.05V206.277H964.324V156.965H916.981L896.127 422.422L873.02 156.965H774.953V452.857H825.677Z" fill="#E4BA4D"/>
<path fill-rule="evenodd" clip-rule="evenodd" d="M1488.69 488.082H1364.97V121.74H1488.69V207.193C1499.72 203.642 1511.35 202.054 1523.21 202.054C1537.49 202.054 1551.44 204.382 1564.67 209.501C1578.21 214.744 1590.16 222.71 1600.21 233.196C1610.86 244.311 1618.29 257.728 1623.28 272.24C1628.55 287.316 1630.71 303.809 1630.71 320.974V488.082H1507V333.655C1507 324.385 1504.79 321.844 1504.62 321.644L1504.21 321.169L1504.12 321.054C1503.98 321.018 1503.79 320.975 1503.56 320.933C1502.91 320.813 1501.87 320.692 1500.38 320.692C1496.44 320.692 1494.67 321.357 1494.19 321.576C1493.94 321.689 1493.83 321.769 1493.77 321.817C1493.71 321.865 1493.54 322.012 1493.27 322.367C1491.44 324.916 1488.69 330.893 1488.69 343.8V488.082ZM1458.91 312.238C1459.57 310.647 1460.29 309.115 1461.07 307.639C1462.21 305.479 1463.48 303.443 1464.87 301.529C1470.06 294.488 1476.95 289.762 1485.55 287.351C1488.82 286.433 1492.34 285.851 1496.11 285.604C1497.5 285.512 1498.92 285.467 1500.38 285.467C1513.91 285.467 1524.19 289.835 1531.24 298.57C1538.56 307.024 1542.23 318.719 1542.23 333.655V452.857H1595.49V320.974C1595.49 306.602 1593.66 294.203 1589.99 283.776C1586.33 273.067 1581.26 264.332 1574.78 257.568C1568.29 250.805 1560.69 245.733 1551.95 242.351C1543.21 238.97 1533.63 237.279 1523.21 237.279C1509.86 237.279 1498.35 239.99 1488.69 245.413C1487.33 246.171 1486.02 246.982 1484.74 247.846C1482.37 249.386 1480.12 251.079 1478.01 252.925C1470.85 259.189 1465.2 267.218 1461.07 277.013H1453.46V156.965H1400.2V452.857H1453.46V343.8C1453.46 331.529 1455.28 321.008 1458.91 312.238Z" fill="#E4BA4D"/>
<path fill-rule="evenodd" clip-rule="evenodd" d="M1188.85 207.971H1250.99V121.74H1374.7V207.971H1450.36V329.146H1374.7V366.907H1442.75V488.082H1318.76C1300.79 488.082 1283.63 481.916 1270.18 468.465L1269.89 468.176L1269.61 467.879C1256.68 454.333 1250.99 437.366 1250.99 419.886V329.146H1188.85V207.971ZM1339.47 293.921H1415.14V243.197H1339.47V156.965H1286.21V243.197H1224.07V293.921H1286.21V419.886C1286.21 429.467 1289.17 437.358 1295.09 443.557C1301.29 449.757 1309.18 452.857 1318.76 452.857H1407.53V402.132H1350.88C1343.28 402.132 1339.47 397.905 1339.47 389.451V293.921Z" fill="#E4BA4D"/>
<path fill-rule="evenodd" clip-rule="evenodd" d="M1174.87 424.409C1174.83 423.754 1174.82 423.089 1174.82 422.414H1167.21C1165.5 426.426 1163.59 430.089 1161.47 433.403C1156.97 440.431 1151.54 445.888 1145.18 449.776C1144.64 450.107 1144.09 450.427 1143.54 450.735C1133.39 456.09 1121.56 458.767 1108.03 458.767C1095.35 458.767 1083.37 456.371 1072.1 451.581C1061.11 446.79 1051.39 439.745 1042.93 430.446C1034.48 421.146 1027.72 409.874 1022.64 396.63C1017.85 383.385 1015.46 368.309 1015.46 351.401V344.637C1015.46 328.011 1017.85 313.076 1022.64 299.831C1027.43 286.586 1033.92 275.314 1042.09 266.015C1050.26 256.715 1059.7 249.67 1070.41 244.88C1081.4 239.807 1093.09 237.271 1105.49 237.271C1117.5 237.271 1127.6 238.911 1135.79 242.192C1136.58 242.509 1137.35 242.841 1138.1 243.189C1139.25 243.717 1140.36 244.281 1141.42 244.88C1148.64 248.814 1154.66 254.443 1159.5 261.767C1160.9 263.887 1162.2 266.148 1163.4 268.551H1171.01V243.189H1224.27V389.444C1224.27 397.898 1228.08 402.125 1235.69 402.125H1243.72V452.849H1207.36C1201.88 452.849 1196.95 451.925 1192.57 450.077C1189.3 448.697 1186.34 446.803 1183.69 444.395C1178.51 439.462 1175.6 433.234 1174.95 425.711C1174.92 425.281 1174.89 424.847 1174.87 424.409ZM1157.19 303.776C1166.41 313.909 1171.01 327.811 1171.01 345.483V350.555C1171.01 365.29 1167.81 377.501 1161.4 387.189C1160.09 389.174 1158.64 391.053 1157.06 392.825C1151.24 399.178 1144.2 403.542 1135.95 405.916C1131.02 407.334 1125.66 408.043 1119.87 408.043C1104.37 408.043 1091.97 402.97 1082.67 392.825C1073.37 382.399 1068.72 368.309 1068.72 350.555V345.483C1068.72 327.729 1073.37 313.78 1082.67 303.635C1091.97 293.209 1104.37 287.995 1119.87 287.995C1125.16 287.995 1130.09 288.603 1134.65 289.818C1143.47 292.162 1150.94 296.768 1157.06 303.635C1157.11 303.682 1157.15 303.729 1157.19 303.776ZM1108.8 369.206C1110.55 371.05 1113.08 372.817 1119.87 372.817C1126.65 372.817 1129.18 371.05 1130.93 369.206C1133.03 366.77 1135.79 361.805 1135.79 350.555V345.483C1135.79 333.906 1132.87 329.374 1131.1 327.438L1130.77 327.084C1128.93 325.02 1126.55 323.22 1119.87 323.22C1113.18 323.22 1110.8 325.017 1108.96 327.082L1108.64 327.44C1106.86 329.376 1103.94 333.906 1103.94 345.483V350.555C1103.94 361.805 1106.7 366.77 1108.8 369.206ZM1168.15 476.803C1165.77 478.493 1163.27 480.071 1160.64 481.528L1160.31 481.711L1159.98 481.888C1143.93 490.358 1126.26 493.992 1108.03 493.992C1090.78 493.992 1074.11 490.708 1058.32 484L1058.02 483.873C1042.26 477 1028.5 466.938 1016.87 454.141C1005.11 441.21 996.188 426.042 989.748 409.228L989.631 408.92L989.519 408.611C983.091 390.841 980.233 371.598 980.233 351.401V344.637C980.233 324.646 983.113 305.56 989.519 287.85C995.603 271.03 1004.18 255.792 1015.63 242.762C1026.91 229.93 1040.34 219.778 1055.83 212.81C1071.51 205.607 1088.19 202.046 1105.49 202.046C1118.85 202.046 1132.28 203.649 1144.78 207.964H1259.5V366.9H1278.94V488.074H1207.36C1193.62 488.074 1180.04 484.652 1168.15 476.803Z" fill="#E4BA4D"/>
<path d="M774.953 156.965H873.02L896.127 422.422L916.981 156.965H964.324V206.277H1015.05V452.857H964.324V255.032V206.277H957.688L937.271 452.857H853.576L832.373 206.277H825.677V255.032V452.857H774.953V156.965Z" fill="black"/>
<path d="M1453.46 452.857H1400.2V156.965H1453.46V277.013H1461.07C1466.42 264.332 1474.31 254.609 1484.74 247.846C1495.17 240.801 1507.99 237.279 1523.21 237.279C1533.63 237.279 1543.21 238.969 1551.95 242.351C1560.69 245.733 1568.29 250.805 1574.78 257.568C1581.26 264.332 1586.33 273.067 1589.99 283.776C1593.66 294.203 1595.49 306.602 1595.49 320.974V452.857H1542.23V333.655C1542.23 318.719 1538.56 307.024 1531.24 298.57C1524.19 289.835 1513.91 285.467 1500.38 285.467C1484.6 285.467 1472.76 290.821 1464.87 301.529C1457.26 311.956 1453.46 326.046 1453.46 343.799V452.857Z" fill="black"/>
<path d="M1224.07 243.196H1286.21V156.965H1339.47V243.196H1415.14V293.921H1339.47V389.451C1339.47 397.905 1343.28 402.132 1350.88 402.132H1407.53V452.857H1318.76C1309.18 452.857 1301.29 449.757 1295.09 443.557C1289.17 437.357 1286.21 429.467 1286.21 419.886V293.921H1224.07V243.196Z" fill="black"/>
<path d="M1167.21 422.414C1161.57 435.659 1153.68 445.099 1143.54 450.735C1133.39 456.09 1121.56 458.767 1108.03 458.767C1095.35 458.767 1083.37 456.371 1072.1 451.581C1061.11 446.79 1051.39 439.745 1042.93 430.446C1034.48 421.146 1027.72 409.874 1022.64 396.63C1017.85 383.385 1015.46 368.309 1015.46 351.4V344.637C1015.46 328.011 1017.85 313.076 1022.64 299.831C1027.43 286.586 1033.92 275.314 1042.09 266.015C1050.26 256.715 1059.7 249.67 1070.41 244.88C1081.4 239.807 1093.09 237.271 1105.49 237.271C1120.43 237.271 1132.41 239.807 1141.42 244.88C1150.72 249.952 1158.05 257.842 1163.4 268.551H1171.01V243.189H1224.27V389.444C1224.27 397.898 1228.08 402.125 1235.69 402.125H1243.72V452.849H1207.36C1197.78 452.849 1189.89 450.031 1183.69 444.395C1177.78 438.759 1174.82 431.432 1174.82 422.414H1167.21ZM1119.86 408.043C1135.36 408.043 1147.76 402.97 1157.06 392.825C1166.36 382.399 1171.01 368.309 1171.01 350.555V345.483C1171.01 327.729 1166.36 313.78 1157.06 303.635C1147.76 293.209 1135.36 287.995 1119.86 287.995C1104.37 287.995 1091.97 293.209 1082.67 303.635C1073.37 313.78 1068.72 327.729 1068.72 345.483V350.555C1068.72 368.309 1073.37 382.399 1082.67 392.825C1091.97 402.97 1104.37 408.043 1119.86 408.043Z" fill="black"/>
<defs>
<radialGradient id="paint0_radial_41_96" cx="0" cy="0" r="1" gradientUnits="userSpaceOnUse" gradientTransform="translate(352.251 493.152) rotate(90) scale(88.0629 176.126)">
<stop stop-color="#4C4C4C"/>
<stop offset="1" stop-color="#737373" stop-opacity="0"/>
</radialGradient>
<radialGradient id="paint1_radial_41_96" cx="0" cy="0" r="1" gradientUnits="userSpaceOnUse" gradientTransform="translate(334.639 264.189) rotate(100.218) scale(281.801 223.497)">
<stop stop-color="#BF8020"/>
<stop offset="0.645" stop-color="#DE3F1D"/>
<stop offset="0.975" stop-color="#D2310D"/>
</radialGradient>
<radialGradient id="paint2_radial_41_96" cx="0" cy="0" r="1" gradientUnits="userSpaceOnUse" gradientTransform="translate(334.639 264.189) rotate(100.218) scale(281.801 223.497)">
<stop stop-color="#BF8020"/>
<stop offset="0.645" stop-color="#DE3F1D"/>
<stop offset="0.975" stop-color="#D2310D"/>
</radialGradient>
<radialGradient id="paint3_radial_41_96" cx="0" cy="0" r="1" gradientUnits="userSpaceOnUse" gradientTransform="translate(369.864 299.413) rotate(-14.0362) scale(145.237 104.869)">
<stop stop-color="#D69D0C"/>
<stop offset="1" stop-color="#CE6707"/>
</radialGradient>
<radialGradient id="paint4_radial_41_96" cx="0" cy="0" r="1" gradientUnits="userSpaceOnUse" gradientTransform="translate(369.864 299.413) rotate(-14.0362) scale(145.237 104.869)">
<stop stop-color="#D69D0C"/>
<stop offset="1" stop-color="#CE6707"/>
</radialGradient>
<radialGradient id="paint5_radial_41_96" cx="0" cy="0" r="1" gradientUnits="userSpaceOnUse" gradientTransform="translate(369.864 281.801) rotate(116.565) scale(315.063 227.436)">
<stop stop-color="#D69D0C"/>
<stop offset="1" stop-color="#CE6707"/>
</radialGradient>
<radialGradient id="paint6_radial_41_96" cx="0" cy="0" r="1" gradientUnits="userSpaceOnUse" gradientTransform="translate(369.864 281.801) rotate(116.565) scale(315.063 227.436)">
<stop stop-color="#D69D0C"/>
<stop offset="1" stop-color="#CE6707"/>
</radialGradient>
</defs>
</svg>
