<svg width="1690" height="397" viewBox="0 0 1690 397" fill="none" xmlns="http://www.w3.org/2000/svg">
<path d="M1689.82 209.654C1689.82 227.126 1686.86 242.625 1680.94 256.151C1675.03 269.396 1667 280.668 1656.85 289.968C1646.71 298.985 1635.01 305.889 1621.77 310.68C1608.8 315.471 1595.14 317.866 1580.76 317.866C1566.39 317.866 1552.58 315.471 1539.34 310.68C1526.38 305.889 1514.82 298.985 1504.68 289.968C1494.53 280.668 1486.5 269.396 1480.58 256.151C1474.67 242.625 1471.71 227.126 1471.71 209.654V204.582C1471.71 187.392 1474.67 172.175 1480.58 158.93C1486.5 145.404 1494.53 133.991 1504.68 124.691C1514.82 115.392 1526.38 108.347 1539.34 103.556C1552.58 98.7654 1566.39 96.3701 1580.76 96.3701C1595.14 96.3701 1608.8 98.7654 1621.77 103.556C1635.01 108.347 1646.71 115.392 1656.85 124.691C1667 133.991 1675.03 145.404 1680.94 158.93C1686.86 172.175 1689.82 187.392 1689.82 204.582V209.654ZM1580.76 267.142C1588.37 267.142 1595.56 265.874 1602.32 263.337C1609.09 260.801 1615 257.138 1620.08 252.347C1625.15 247.556 1629.09 241.78 1631.91 235.016C1635.01 227.971 1636.56 220.081 1636.56 211.345V202.891C1636.56 194.155 1635.01 186.406 1631.91 179.642C1629.09 172.597 1625.15 166.68 1620.08 161.889C1615 157.098 1609.09 153.435 1602.32 150.899C1595.56 148.362 1588.37 147.094 1580.76 147.094C1573.16 147.094 1565.97 148.362 1559.21 150.899C1552.44 153.435 1546.53 157.098 1541.45 161.889C1536.38 166.68 1532.29 172.597 1529.19 179.642C1526.38 186.406 1524.97 194.155 1524.97 202.891V211.345C1524.97 220.081 1526.38 227.971 1529.19 235.016C1532.29 241.78 1536.38 247.556 1541.45 252.347C1546.53 257.138 1552.44 260.801 1559.21 263.337C1565.97 265.874 1573.16 267.142 1580.76 267.142Z" fill="black"/>
<path d="M880.629 16.0645H978.695L1001.8 281.521L1022.66 16.0645H1070V65.3762H1120.72V311.956H1070V114.131V65.3762H1063.36L1042.95 311.956H959.251L938.048 65.3762H931.353V114.131V311.956H880.629V16.0645Z" fill="black"/>
<path d="M1328.55 102.294H1462.97V353.379C1462.97 368.032 1459.03 378.882 1451.13 385.927C1443.24 392.972 1432.96 396.494 1420.28 396.494H1320.94V345.77H1397.03C1405.48 345.77 1409.71 341.12 1409.71 331.821V153.018H1328.55V102.294ZM1475.65 40.1567C1475.65 45.7927 1474.52 51.1469 1472.27 56.2193C1470.3 61.01 1467.48 65.237 1463.82 68.9004C1460.15 72.282 1455.78 75.1 1450.71 77.3544C1445.92 79.327 1440.85 80.3133 1435.49 80.3133C1429.86 80.3133 1424.65 79.327 1419.85 77.3544C1415.06 75.1 1410.84 72.282 1407.17 68.9004C1403.51 65.237 1400.55 61.01 1398.3 56.2193C1396.32 51.1469 1395.34 45.7927 1395.34 40.1567C1395.34 34.5206 1396.32 29.3073 1398.3 24.5167C1400.55 19.4443 1403.51 15.2173 1407.17 11.8356C1410.84 8.17223 1415.06 5.35422 1419.85 3.38162C1424.65 1.12721 1429.86 0 1435.49 0C1440.85 0 1445.92 1.12721 1450.71 3.38162C1455.78 5.35422 1460.15 8.17223 1463.82 11.8356C1467.48 15.2173 1470.3 19.4443 1472.27 24.5167C1474.52 29.3073 1475.65 34.5206 1475.65 40.1567Z" fill="black"/>
<path d="M1345.32 209.654C1345.32 227.126 1342.36 242.625 1336.44 256.151C1330.52 269.396 1322.49 280.668 1312.35 289.968C1302.2 298.985 1290.51 305.889 1277.26 310.68C1264.3 315.471 1250.63 317.866 1236.26 317.866C1221.89 317.866 1208.08 315.471 1194.84 310.68C1181.87 305.889 1170.32 298.985 1160.18 289.968C1150.03 280.668 1142 269.396 1136.08 256.151C1130.16 242.625 1127.2 227.126 1127.2 209.654V204.582C1127.2 187.392 1130.16 172.175 1136.08 158.93C1142 145.404 1150.03 133.991 1160.18 124.691C1170.32 115.392 1181.87 108.347 1194.84 103.556C1208.08 98.7654 1221.89 96.3701 1236.26 96.3701C1250.63 96.3701 1264.3 98.7654 1277.26 103.556C1290.51 108.347 1302.2 115.392 1312.35 124.691C1322.49 133.991 1330.52 145.404 1336.44 158.93C1342.36 172.175 1345.32 187.392 1345.32 204.582V209.654ZM1236.26 267.142C1243.87 267.142 1251.06 265.874 1257.82 263.337C1264.58 260.801 1270.5 257.138 1275.57 252.347C1280.65 247.556 1284.59 241.78 1287.41 235.016C1290.51 227.971 1292.06 220.081 1292.06 211.345V202.891C1292.06 194.155 1290.51 186.406 1287.41 179.642C1284.59 172.597 1280.65 166.68 1275.57 161.889C1270.5 157.098 1264.58 153.435 1257.82 150.899C1251.06 148.362 1243.87 147.094 1236.26 147.094C1228.65 147.094 1221.47 148.362 1214.7 150.899C1207.94 153.435 1202.02 157.098 1196.95 161.889C1191.88 166.68 1187.79 172.597 1184.69 179.642C1181.87 186.406 1180.46 194.155 1180.46 202.891V211.345C1180.46 220.081 1181.87 227.971 1184.69 235.016C1187.79 241.78 1191.88 247.556 1196.95 252.347C1202.02 257.138 1207.94 260.801 1214.7 263.337C1221.47 265.874 1228.65 267.142 1236.26 267.142Z" fill="black"/>
<path d="M0 16.0645H98.0668L121.173 281.521L142.028 16.0645H189.37V65.3762H240.095V311.956H189.37V114.131V65.3762H182.735L162.318 311.956H78.6225L57.4198 65.3762H50.7242V114.131V311.956H0V16.0645Z" fill="black"/>
<path d="M678.507 311.956H625.246V16.0645H678.507V136.112H686.115C691.47 123.431 699.36 113.709 709.787 106.945C720.213 99.9003 733.035 96.3778 748.252 96.3778C758.679 96.3778 768.26 98.0686 776.996 101.45C785.732 104.832 793.341 109.904 799.822 116.667C806.304 123.431 811.376 132.167 815.039 142.875C818.703 153.302 820.535 165.701 820.535 180.073V311.956H767.274V192.754C767.274 177.818 763.611 166.124 756.284 157.67C749.239 148.934 738.953 144.566 725.427 144.566C709.646 144.566 697.81 149.92 689.92 160.628C682.311 171.055 678.507 185.145 678.507 202.899V311.956Z" fill="black"/>
<path d="M449.121 102.296H511.258V16.0645H564.518V102.296H640.182V153.02H564.518V248.55C564.518 257.004 568.323 261.231 575.931 261.231H632.573V311.956H543.806C534.225 311.956 526.334 308.856 520.135 302.656C514.217 296.457 511.258 288.566 511.258 278.985V153.02H449.121V102.296Z" fill="black"/>
<path d="M392.254 281.514C386.618 294.758 378.728 304.199 368.583 309.835C358.438 315.189 346.603 317.866 333.076 317.866C320.395 317.866 308.418 315.471 297.146 310.68C286.156 305.889 276.434 298.844 267.98 289.545C259.526 280.245 252.763 268.973 247.69 255.729C242.9 242.484 240.504 227.408 240.504 210.5V203.736C240.504 187.11 242.9 172.175 247.69 158.93C252.481 145.685 258.962 134.413 267.135 125.114C275.307 115.814 284.747 108.769 295.456 103.979C306.446 98.9063 318.141 96.3701 330.54 96.3701C345.475 96.3701 357.452 98.9063 366.47 103.979C375.769 109.051 383.096 116.942 388.45 127.65H396.059V102.288H449.319V248.543C449.319 256.997 453.123 261.224 460.732 261.224H468.763V311.948H432.411C422.83 311.948 414.939 309.13 408.74 303.494C402.822 297.858 399.863 290.531 399.863 281.514H392.254ZM344.912 267.142C360.411 267.142 372.81 262.069 382.109 251.924C391.409 241.498 396.059 227.408 396.059 209.654V204.582C396.059 186.828 391.409 172.879 382.109 162.734C372.81 152.308 360.411 147.094 344.912 147.094C329.413 147.094 317.013 152.308 307.714 162.734C298.415 172.879 293.765 186.828 293.765 204.582V209.654C293.765 227.408 298.415 241.498 307.714 251.924C317.013 262.069 329.413 267.142 344.912 267.142Z" fill="black"/>
</svg>
